<svg id="Layer_1" data-name="Layer 1" xmlns="http://www.w3.org/2000/svg" viewBox="0 0 500 500"><defs><style>.cls-1{fill:#d0545b;}.cls-2{fill:#cb4149;}.cls-3{fill:#c62f37;}.cls-4{fill:#fff;}</style></defs><title>Artboard 1</title><path class="cls-1" d="M268.19,405.16c-.21-1.23-.38-2.47-.5-3.73-2.47-26.74,16.35-50.76,43.09-56.76,3.47-24,23.89-43.55,50.24-46a56.94,56.94,0,0,1,40.23,11.54,56.28,56.28,0,0,1,45-29.72c.48,0,1-.07,1.44-.1A201.56,201.56,0,0,0,450,250c0-110.46-89.54-200-200-200S50,139.54,50,250c0,110.21,89.15,199.59,199.27,200C247.65,432.43,255.22,416,268.19,405.16Z"/><path class="cls-1" d="M378.81,403l-.55.14c0,.13,0,.25-.06.38Z"/><path class="cls-2" d="M253.31,425a54.16,54.16,0,0,1,14.88-19.8c-.21-1.23-.38-2.47-.5-3.73-2.47-26.74,16.35-50.76,43.09-56.76,3.47-24,23.89-43.55,50.24-46a56.94,56.94,0,0,1,40.23,11.54,54.91,54.91,0,0,1,19.33-21A175,175,0,1,0,250,425C251.11,425,252.21,425,253.31,425Z"/><path class="cls-3" d="M267.52,399c-1.14-25.75,17.34-48.49,43.26-54.3,3.47-24,23.89-43.55,50.24-46a57.48,57.48,0,0,1,29.13,4.85A150,150,0,1,0,250,400,151.51,151.51,0,0,0,267.52,399Z"/><path id="_Path_" data-name="&lt;Path&gt;" class="cls-4" d="M377.47,271a2.7,2.7,0,0,1-4.77-1.6c-.17-7.56-3.73-19.64-22.38-27.67-8.09-3.48-34.37-16.24-43-31.67L246.26,315.87c-.08.14-.19.25-.28.39-14.51,24.12-51.09,33-82.21,19.79-31.42-13.34-45.36-44.13-31.14-68.76s51.23-33.8,82.65-20.46c17.33,7.35,29.3,20,34.2,34l75.71-131.14a7.34,7.34,0,0,1,9.19-3.09l0,0s.34.15.81.4l0,0,0,0c2.33,1.23,9.34,5.76,16.23,18.65,8.4,15.71-1.4,32.67,17.59,53.35C378,228.71,394.36,251.39,377.47,271Z"/></svg>